<svg id="Layer_3" enable-background="new 0 0 64 64" height="512" viewBox="0 0 64 64" width="512" xmlns="http://www.w3.org/2000/svg"><g><path d="m55.996 31.195c3.77 3.009 6.004 6.75 6.004 10.805 0 9.941-13.431 18-30 18s-30-8.059-30-18c0-4.054 2.234-7.796 6.004-10.805" fill="#976947"/><g><path d="m32.6 13.799-1.2-1.601.4-.3c2.003-1.502 3.199-3.895 3.199-6.399v-.502l2.001.003v.5c0 3.13-1.495 6.121-4 7.999z" fill="#e47c6e"/></g><ellipse cx="32" cy="25" fill="#f5cf88" rx="24" ry="11"/><path d="m55.097 28c-2.849 4.617-12.111 8-23.097 8s-20.249-3.383-23.097-8.001l.002-.001c-.59.954-.905 1.961-.905 3.002 0 6.075 10.745 11 24 11s24-4.925 24-11c0-1.04-.315-2.047-.903-3z" fill="#c18e59"/><path d="m55.097 34c-2.849 4.617-12.111 8-23.097 8s-20.249-3.383-23.097-8.001l.002-.001c-.59.954-.905 1.961-.905 3.002 0 6.075 10.745 11 24 11s24-4.925 24-11c0-1.04-.315-2.047-.903-3z" fill="#f5cf88"/><path d="m55.097 40c-2.849 4.617-12.111 8-23.097 8s-20.249-3.383-23.097-8.001l.002-.001c-.59.954-.905 1.961-.905 3.002 0 6.075 10.745 11 24 11s24-4.925 24-11c0-1.04-.315-2.047-.903-3z" fill="#c18e59"/><path d="m25.832 19.638c-.506-.396-1.139-.638-1.832-.638-.928 0-1.747.43-2.297 1.092-.226-.055-.46-.092-.703-.092-1.067 0-1.998.561-2.53 1.4-.436-.247-.933-.4-1.47-.4-.896 0-1.692.401-2.242 1.024-1.541.125-2.758 1.402-2.758 2.976s1.217 2.851 2.758 2.976c.55.623 1.346 1.024 2.242 1.024.537 0 1.034-.153 1.47-.4.532.839 1.463 1.4 2.53 1.4.243 0 .477-.037.703-.092.55.662 1.369 1.092 2.297 1.092.772 0 1.468-.3 2-.779.532.479 1.228.779 2 .779.537 0 1.034-.153 1.47-.4.532.839 1.463 1.4 2.53 1.4.051 0 .097-.017.147-.019-.086.327-.147.664-.147 1.019 0 1.586.93 2.944 2.268 3.591-.166.44-.268.911-.268 1.409 0 2.209 1.791 4 4 4 .18 0 .352-.03.526-.053.685 1.219 1.976 2.053 3.474 2.053 2.209 0 4-1.791 4-4 0-1.746-1.126-3.215-2.685-3.761.432-.639.685-1.409.685-2.239 0-1.498-.834-2.789-2.053-3.474.013-.101.025-.203.031-.306.111-.1.224-.197.319-.312.226.055.46.092.703.092 1.067 0 1.998-.561 2.53-1.4.436.247.933.4 1.47.4.896 0 1.692-.401 2.242-1.024 1.541-.125 2.758-1.402 2.758-2.976s-1.217-2.851-2.758-2.976c-.55-.623-1.346-1.024-2.242-1.024-.537 0-1.034.153-1.47.4-.532-.839-1.463-1.4-2.53-1.4-.243 0-.477.037-.703.092-.55-.662-1.369-1.092-2.297-1.092-.693 0-1.326.242-1.833.638" fill="#fadfb2"/><g fill="#c66b60"><circle cx="28" cy="23" r="4"/><circle cx="36" cy="23" r="4"/><circle cx="32" cy="16" r="4"/></g><path d="m32 12c-3.314 0-6-2.686-6-6v-2c3.314 0 6 2.686 6 6z" fill="#78b75b"/><path d="m38.426 19.839c-.675-.518-1.509-.839-2.426-.839-2.209 0-4 1.791-4 4 0 1.201.541 2.267 1.379 3 2.672-.918 4.664-3.282 5.047-6.161z" fill="#e47c6e"/><path d="m30.426 19.839c-.675-.518-1.509-.839-2.426-.839-2.209 0-4 1.791-4 4 0 1.201.541 2.267 1.379 3 2.672-.918 4.664-3.282 5.047-6.161z" fill="#e47c6e"/></g></svg>